/vscmnt/brussel_pixiu_data/_data_brussel/112/vsc11236/PredSimResults/SUBJ07opt3D/weighted-expIG/worker_01.mot
version=1
nRows=5
nColumns=50
inDegrees=yes
endheader
                time	         pelvis_tilt	         pelvis_list	     pelvis_rotation	           pelvis_tx	           pelvis_ty	           pelvis_tz	       hip_flexion_r	     hip_adduction_r	      hip_rotation_r	        knee_angle_r	       ankle_angle_r	         mtp_angle_r	       hip_flexion_l	     hip_adduction_l	      hip_rotation_l	        knee_angle_l	       ankle_angle_l	         mtp_angle_l	    lumbar_extension	      lumbar_bending	     lumbar_rotation	 ercspn_r/activation	 intobl_r/activation	 extobl_r/activation	    abd_r/activation	    add_r/activation	hamstrings_r/activation	bifemsh_r/activation	glut_max_r/activation	iliopsoas_r/activation	rect_fem_r/activation	  vasti_r/activation	gastroc_r/activation	 soleus_r/activation	tib_ant_r/activation	 ercspn_l/activation	 intobl_l/activation	 extobl_l/activation	    abd_l/activation	    add_l/activation	hamstrings_l/activation	bifemsh_l/activation	glut_max_l/activation	iliopsoas_l/activation	rect_fem_l/activation	  vasti_l/activation	gastroc_l/activation	 soleus_l/activation	tib_ant_l/activation	
          0.54010112	         -4.15916360	          0.31591035	         -8.72533646	          0.68592842	          0.84743851	          0.01272440	        -15.11837236	         -0.32746380	          4.31182336	         -8.76925528	          7.54882060	         29.06851954	         30.57329849	         -2.36614122	         -5.16428871	         -7.45686144	          2.61818498	          0.27767616	        -11.52850511	          1.24442034	          1.62936101	          0.11739192	          0.01000004	          0.01000004	          0.03177272	          0.03870890	          0.01891213	          0.15421543	          0.01938907	          0.30722078	          0.01180057	          0.01180040	          0.15138987	          0.30463001	          0.01730192	          0.12186465	          0.13222438	          0.01000020	          0.01211191	          0.16222596	          0.08521154	          0.11007881	          0.09674862	          0.04013101	          0.01000108	          0.01000005	          0.01000011	          0.01000007	          0.41667387	
          0.55090314	         -4.15405933	          0.28605438	         -8.77101598	          0.70210081	          0.84581376	          0.01236997	        -15.59684031	         -0.42942876	          3.99397920	         -9.84319347	          6.56634814	         30.63065218	         30.44324699	         -2.16115296	         -4.81673562	         -9.15665791	          2.25323146	          0.25643166	        -11.39939349	          0.87033797	          1.81591199	          0.13675521	          0.01000002	          0.01000021	          0.02692527	          0.05908565	          0.01602902	          0.13068745	          0.01643096	          0.26034946	          0.01000037	          0.01000012	          0.12829285	          0.28475158	          0.01466222	          0.10327224	          0.12716476	          0.01000006	          0.01026407	          0.14105257	          0.07675982	          0.11820457	          0.15069362	          0.03400836	          0.01000010	          0.01000003	          0.01392494	          0.01180034	          0.46031367	
          0.56170516	         -4.14341933	          0.24679241	         -8.76421407	          0.71839118	          0.84440055	          0.01194089	        -15.88604168	         -0.50099245	          3.62572586	        -11.27771527	          5.49105689	         32.12964024	         30.20437643	         -2.00323752	         -4.47166709	        -10.70307850	          1.81804342	          0.24879484	        -11.27248381	          0.50364855	          1.99169394	          0.15665784	          0.01000001	          0.01000007	          0.02281738	          0.05007172	          0.01358780	          0.11074904	          0.01392417	          0.22062983	          0.01000051	          0.01000008	          0.10871965	          0.26222637	          0.01242526	          0.13555801	          0.10776369	          0.01000006	          0.09568407	          0.15798488	          0.06842996	          0.10743430	          0.15162743	          0.02881983	          0.01000005	          0.01000000	          0.01180048	          0.01000001	          0.53885621	
          0.57250718	         -4.12865907	          0.18684426	         -8.70788489	          0.73461777	          0.84335180	          0.01141914	        -15.92401693	         -0.53222648	          3.22065930	        -13.14735883	          4.28960035	         33.49914677	         29.94313742	         -1.86246122	         -4.19152498	        -12.19438001	          1.35682632	          0.22751141	        -11.16660640	          0.15830397	          2.15541416	          0.19439694	          0.01000001	          0.01000006	          0.01933621	          0.05382430	          0.01361871	          0.09385260	          0.01179984	          0.18696937	          0.01000041	          0.01000005	          0.09213267	          0.22854936	          0.01052959	          0.15171651	          0.09132257	          0.01000005	          0.14916691	          0.17790650	          0.05849350	          0.09104350	          0.18299697	          0.02442290	          0.01000009	          0.01000002	          0.01000017	          0.01000002	          0.56575396	
          0.58330921	         -4.10995763	          0.11432390	         -8.60719686	          0.75063018	          0.84281283	          0.01081705	        -15.65029843	         -0.53246335	          2.78634847	        -15.52972095	          2.97214666	         34.57409557	         29.73366479	         -1.73110154	         -3.96148916	        -13.80568986	          1.16980296	          0.20400964	        -11.09073996	         -0.17443407	          2.30437552	          0.23764512	          0.01000002	          0.01000010	          0.01638615	          0.07248044	          0.01485064	          0.07953406	          0.01000005	          0.15844418	          0.01000025	          0.01000003	          0.07807631	          0.19368038	          0.01000002	          0.16040077	          0.07738980	          0.01000005	          0.19236732	          0.20210970	          0.04999753	          0.07715336	          0.20964923	          0.02069679	          0.01000015	          0.02443377	          0.01000015	          0.01000005	          0.55769178	
